<?xml version="1.0" encoding="utf-8"?>
<!-- Generator: Adobe Illustrator 23.1.0, SVG Export Plug-In . SVG Version: 6.00 Build 0)  -->
<svg version="1.1" id="Layer_1" xmlns="http://www.w3.org/2000/svg" xmlns:xlink="http://www.w3.org/1999/xlink" x="0px" y="0px"
	 viewBox="0 0 448.8 141.7" style="enable-background:new 0 0 448.8 141.7;" xml:space="preserve">
<style type="text/css">
	.st0{fill-rule:evenodd;clip-rule:evenodd;fill:#2A3E43;}
	.st1{fill-rule:evenodd;clip-rule:evenodd;fill:#0C948B;}
	.st2{fill-rule:evenodd;clip-rule:evenodd;fill:#FBAD22;}
</style>
<g>
	<g>
		<path class="st0" d="M342,34.8c-2.9,1.8-4.1,5.4-3.1,8.8c1.1,3.6,3.6,5.2,8.1,5.2c3.3,0,4.1-0.3,5.9-2c2-2,2.3-3.3,2.1-7
			c-0.2-2.8-1.3-4.2-3.9-5.2C347.9,33.1,344.6,33.1,342,34.8"/>
		<polyline class="st0" points="205.5,70.7 205.5,107.2 212.3,107 219.2,106.9 219.2,70.4 219.3,34.1 212.5,34.1 205.5,34.1 
			205.5,70.7 		"/>
		<polyline class="st0" points="154.1,71.1 154.1,107.2 161.1,107.2 167.9,107.2 167.9,92.5 167.9,77.9 181.6,77.9 195.1,77.9 
			195.1,71.7 195.1,65.4 181.6,65.4 167.9,65.4 167.9,56.4 167.9,47.3 182.9,47.3 197.9,47.3 197.9,41.1 197.9,34.8 176.1,34.8 
			154.1,34.8 154.1,71.1 		"/>
		<polyline class="st0" points="426,71.1 426,107.2 433,107.2 439.8,107.2 439.8,71.1 439.8,34.8 433,34.8 426,34.8 426,71.1 		"/>
		<path class="st0" d="M411.8,41.9c-5.5-5.7-11.4-7-31.9-7h-13.7V71v36.1h7h7L380,94.6l-0.2-12.5h8.1c12.9,0,18.1-1.5,23.1-6.5
			c1.5-1.5,3.6-4.4,4.6-6.7c1.6-3.4,1.8-4.9,1.8-10.9C417.4,50.2,415.9,46.2,411.8,41.9z M398.2,68.6c-2,1.1-3.6,1.5-10.4,1.5h-8
			l-0.2-11.2l-0.2-11.2h8.1c6.3,0,8.6,0.3,10.6,1.1c3.9,2,5.2,4.4,5.2,9.9C403.4,63.9,402.2,66.2,398.2,68.6z"/>
		<path class="st0" d="M282.5,56.6c1,1.6,4.2,6.5,7.2,10.9c2.9,4.4,6,9.1,6.8,10.6l1.5,2.6l-8.6,12.5c-4.7,6.8-8.8,12.9-9.1,13.3
			c-0.3,0.5,2.1,0.8,7.5,0.8h8l5.4-8.3l5.4-8.3L312,99l5.4,8.3h8.1c6.2,0,8-0.2,7.5-0.8c-0.3-0.5-4.4-6.2-8.9-12.7
			c-4.7-6.5-8.6-12.2-8.9-12.7s3.6-6.7,8.6-13.8c5-7.2,9.1-13.2,9.1-13.3c0-0.2-3.6-0.3-8-0.3h-8l-5,8.3c-2.8,4.6-5.2,8.1-5.5,8
			c-0.3-0.2-2.6-3.9-5.2-8.3l-4.7-8h-7.8h-7.8L282.5,56.6"/>
		<polyline class="st0" points="340.4,80.3 340.4,106.4 347.1,106.5 353.7,106.9 353.6,80.5 353.6,54.3 347.1,54.3 340.4,54.3 
			340.4,80.3 		"/>
		<path class="st0" d="M263.8,93.5c-0.5,1.5-6.2,3.9-8.8,3.9c-4.9,0-9.8-3.3-12-8c-2.6-5.5-3.6-5.2,16.9-5.2h18.2l-0.3-6.8
			c-0.3-8.1-2.3-13-6.7-17.4c-4.7-4.7-9.1-6.5-16.4-6.8c-3.9-0.2-7.3,0.2-9.1,0.8c-4.2,1.5-7.5,3.6-10.9,7.5
			c-9.3,10.3-8.8,29.9,1,39.5c9.1,9.1,27,9.6,36,1.1c2-1.8,5.7-7.8,5.7-9.1c0-0.2-2.9-0.3-6.5-0.3C265.7,92.5,264.1,92.9,263.8,93.5
			z M242.1,73.7c0.8-2.9,2.4-6,3.7-7.2c3.4-3.1,10.3-3.7,13.8-1.1c2.6,1.8,4.9,5.5,4.9,7.8v2h-11.4h-11.5L242.1,73.7z"/>
	</g>
	<g>
		<path class="st1" d="M33,13.5C20.8,14.8,12.3,22.4,9.8,34c-1.1,5-1.1,67.8,0,72.8c2.4,11.6,11,19.5,23.1,21.2
			c6.4,0.9,62.9,0.9,68.7,0c12.8-2.1,21.7-11.2,23.5-23.8c0.9-6.5,0.9-63,0-68.7c-1.4-9-6.8-16.5-14-19.8c-2.1-1-6.1-2-9.8-2.3
			C94,12.7,41,12.7,33,13.5"/>
		<g>
			
				<image style="overflow:visible;opacity:0.4;enable-background:new    ;" width="450" height="458" xlink:href="FE59E079.png"  transform="matrix(0.2123 0 0 0.2123 24.6878 27.1133)">
			</image>
			<g>
				<g>
					<path class="st2" d="M98.7,42c-1.7,2.8-4.6,4.9-7.7,5c-2.5,0.1-5.1-0.4-7.6-0.7c-3.3-0.4-6.7-0.9-10-1.3
						c-7.9-1-17.3-2.6-24.6,1.7c-2.9,1.7-5.2,4.4-6.3,7.6c-1.1,2.9-1.5,6.6-0.4,9.6c0.3,0.6,0.7,1.2,1.4,1.5c0.6,0.2,1.3,0,1.9-0.4
						c1.2-0.7,2.2-1.7,3.4-2.5s2.5-1.4,3.8-2c4-1.7,8.3-2.2,12.7-2.6c2.1-0.2,4.3-0.2,6.3-0.3c2.5,0,5,0,7.5,0c0.1,0,0,2.9-0.1,3.1
						c-0.2,1.5-0.7,3.1-1.7,4.4c-1.7,2.2-4.1,2.8-11.2,4.2c-8.5,1.7-10.9,2.1-14.8,3.5c-2.8,1-6.4,1.9-7.8,4.9
						c-1.4,3.2-0.1,7.1,0.3,10.4c0.4,4.7,0.8,10.3-1.3,14.6c-1,2.1-3.1,1.9-5.1,1.9c-3.5,0-4.2-0.3-4.9-1.4c-0.4-0.8-0.4-2-0.4-2.9
						c-0.1-1.7-0.1-3.3-0.2-5c-0.3-11.3-0.2-22.8,0.3-34.2c0.1-2.5,0.3-5,0.4-7.5c0.3-2.5,0.4-5,1.4-7.3
						c3.3-8.4,12.6-11.1,20.7-11.7c11.3-0.9,22.7-0.4,34-0.4c1.4,0,2.8,0,4.2,0c1.3,0,2.7,0,4,0c0.7,0,1.3,0,2.1,0
						c0.8,0,1.1-0.2,1.2,0.6C100.7,37.2,100.1,39.9,98.7,42z"/>
					<path class="st2" d="M99.8,71c-0.3,3.2-0.6,6.5-1.2,9.7c-1.4,7.9-4,15.6-11.1,20.3c-4.1,2.7-9.1,3.7-14,3.7
						c-4.8,0-9.4-1.2-14.3-0.5c-1.7,0.3-3,0.5-3.9,0.8c-0.3-2.5,0-5.1,0.4-7.6c0.2-1,0.4-1.6,1-2.2c1.3-1.5,3.6-1.2,5.4-1.2
						c2.9,0.1,5.7,0.5,8.6,0.7c4.9,0.3,10-0.9,13.6-4.4c2.3-2.3,3.3-5.4,4.1-8.6c2.1-8.2,2.9-16.4,0.5-24.7c0.3,0.8,4,0.1,4.6,0
						c1.7-0.2,4.1-1.1,5.5,0.3c1.2,1,1.1,2.5,1.2,3.9C100.1,64.5,100.1,67.7,99.8,71z"/>
				</g>
			</g>
		</g>
	</g>
</g>
</svg>
